PathFileType	4	(X/Y/Z)	E:\Qualisys_Data\Carbon_Farble_Plate\Data\Amateur_Runner\S1\T2\S1T2V21_c3d.trc
DataRate	CameraRate	NumFrames	NumMarkers	Units	OrigDataRate	OrigDataStartFrame	OrigNumFrames
200.000000	200.000000	5	39	mm	200.000000	248	284
Frame#	Time	LSHO			RSHO			LICST			RICST			LASIS			LHEEL			RASIS			LTROC			RTROC			SACR			LTH1			LSK4			LTH2			LTH3			RHM5			LSK2			LTH4			RTH1			LTOE			RTH2			RTH3			RTH4			LLEP			RLEP			LSK1			LSK3			RSK1			LHM5			RSK2			LFT1			RSK3			RSK4			LLME			RLME			RTOE			RHEEL			RFT1			RFT2			LFT2			
		X1	Y1	Z1	X2	Y2	Z2	X3	Y3	Z3	X4	Y4	Z4	X5	Y5	Z5	X6	Y6	Z6	X7	Y7	Z7	X8	Y8	Z8	X9	Y9	Z9	X10	Y10	Z10	X11	Y11	Z11	X12	Y12	Z12	X13	Y13	Z13	X14	Y14	Z14	X15	Y15	Z15	X16	Y16	Z16	X17	Y17	Z17	X18	Y18	Z18	X19	Y19	Z19	X20	Y20	Z20	X21	Y21	Z21	X22	Y22	Z22	X23	Y23	Z23	X24	Y24	Z24	X25	Y25	Z25	X26	Y26	Z26	X27	Y27	Z27	X28	Y28	Z28	X29	Y29	Z29	X30	Y30	Z30	X31	Y31	Z31	X32	Y32	Z32	X33	Y33	Z33	X34	Y34	Z34	X35	Y35	Z35	X36	Y36	Z36	X37	Y37	Z37	X38	Y38	Z38	X39	Y39	Z39	

249	1.24	2591.17333984375	1512.403564453125	-567.2222900390625	2509.602783203125	1513.438110351562	-250.8775329589844	2538.44287109375	1039.206176757812	-544.461181640625	2539.072021484375	1069.141235351562	-247.2037658691406	2582.007568359375	998.6162109375	-520.1438598632812	2025.599731445312	234.0485229492188	-434.1448059082031	2577.566162109375	1022.349853515625	-257.7064514160156	2454.46142578125	930.9144897460938	-556.2601318359375	2490.068603515625	931.3217163085938	-215.0244750976562	2420.544189453125	1071.043212890625	-391.4530029296875	2534.8251953125	752.433349609375	-536.4129028320312	2137.01171875	346.4639892578125	-472.9405212402344	2452.9775390625	771.4274291992188	-559.2134399414062	2500.546142578125	658.9656982421875	-512.712646484375	2720.214111328125	149.064208984375	-245.0874328613281	2202.889892578125	416.6706237792969	-512.2569580078125	2418.005126953125	680.0818481445312	-533.5936889648438	2663.30615234375	884.2479248046875	-249.1428527832031	2187.36474609375	47.32149887084961	-445.8212585449219	2608.6357421875	835.8079223632812	-218.8760070800781	2729.551513671875	806.3233642578125	-253.9129333496094	2668.30029296875	756.3897705078125	-232.6166229248047	2391.14453125	529.8843383789062	-495.8892822265625	2772.82763671875	627.7393798828125	-266.7229309082031	2263.898681640625	358.0088500976562	-503.4818115234375	2188.6259765625	289.34521484375	-498.7798156738281	2715.968994140625	445.3034362792969	-250.3365020751953	2115.941162109375	68.55224609375	-508.9899291992188	2641.080078125	473.7282104492188	-267.0072326660156	2012.801635742188	208.5473937988281	-407.5508117675781	2683.674560546875	351.0086059570312	-264.4773559570312	2611.016357421875	379.6621704101562	-288.5555725097656	2086.369140625	222.5524749755859	-492.5093078613281	2607.73388671875	238.6684112548828	-267.9555358886719	2788.076904296875	157.3961791992188	-316.6207275390625	2538.462646484375	211.1933746337891	-315.9044799804688	2547.97412109375	178.4953918457031	-345.7381286621094	2536.384033203125	181.1611175537109	-291.58154296875	2001.954467773438	208.2411651611328	-460.2940673828125
250	1.245	2612.3037109375	1516.72314453125	-565.188232421875	2530.37646484375	1516.156616210938	-250.7757415771484	2561.259521484375	1042.255493164062	-544.5918579101562	2561.583984375	1072.52001953125	-246.9430084228516	2604.48486328125	1001.277526855469	-519.6524047851562	2043.144409179688	246.9985809326172	-435.5072937011719	2599.551513671875	1025.542114257812	-257.56787109375	2476.429443359375	934.7244873046876	-556.1682739257812	2512.04931640625	934.5692749023438	-215.7530059814453	2443.27734375	1073.968139648438	-391.8766479492188	2554.322021484375	755.8436889648438	-538.5614624023438	2151.229736328125	353.3258361816406	-473.5250244140625	2471.884765625	776.251953125	-559.4113159179688	2515.408447265625	658.619873046875	-515.2426147460938	2763.472412109375	147.3384552001953	-244.4036865234375	2217.160888671875	423.7523803710938	-512.6210327148438	2435.6650390625	685.334228515625	-534.0663452148438	2686.911865234375	887.1311645507812	-250.5388946533203	2192.78857421875	46.49332046508789	-446.5629577636719	2629.89794921875	838.2890625	-220.2118988037109	2750.879638671875	808.550537109375	-253.6000518798828	2688.137451171875	759.7958984375	-231.8379364013672	2406.847412109375	534.3389282226562	-497.3047485351562	2793.1845703125	628.8958129882812	-266.7666320800781	2277.953857421875	364.1788330078125	-504.2218627929688	2202.5234375	297.0091247558594	-499.8085327148438	2743.761962890625	442.8892517089844	-249.5501708984375	2121.40869140625	73.87848663330078	-507.8931579589844	2667.2392578125	468.4812622070312	-265.3817749023438	2028.830932617188	223.0853271484375	-407.9883422851562	2716.5732421875	346.9208679199219	-264.9378356933594	2643.70947265625	371.7647399902344	-289.3825378417969	2100.174560546875	229.9402313232422	-493.1128234863281	2646.610107421875	231.0694885253906	-268.0700988769531	2830.262939453125	159.1669769287109	-316.3002624511719	2578.85107421875	199.7745971679688	-316.1178894042969	2590.042236328125	167.3239288330078	-345.0901489257812	2578.19189453125	169.2590026855469	-291.121826171875	2017.1953125	222.3797607421875	-460.0768737792969
251	1.25	2633.35302734375	1520.658447265625	-563.3912353515625	2550.189697265625	1519.012084960938	-249.6176147460938	2584.313232421875	1044.878540039062	-544.1621704101562	2583.8935546875	1075.038818359375	-246.9686584472656	2627.141845703125	1003.803283691406	-519.5262451171875	2061.810302734375	259.8800048828125	-436.2010192871094	2621.566162109375	1028.112182617188	-257.6207885742188	2497.85107421875	938.2285766601562	-556.3856201171875	2532.75732421875	937.2503051757812	-214.9140777587891	2466.1591796875	1077.425659179688	-392.0049438476562	2573.635986328125	759.385009765625	-539.5078125	2165.539794921875	360.7008056640625	-474.0465393066406	2491.279052734375	780.4498901367188	-559.86865234375	2532.81884765625	662.017578125	-516.9632568359375	2806.05810546875	146.4683685302734	-244.5881805419922	2232.24951171875	429.9921569824219	-512.6140747070312	2453.28759765625	689.4705810546875	-534.7622680664062	2709.5693359375	889.0659790039062	-249.872802734375	2199.2197265625	45.92752075195312	-446.630126953125	2651.3896484375	840.4098510742188	-220.4075927734375	2773.278564453125	809.99560546875	-254.6322479248047	2710.364501953125	760.4866333007812	-236.2035369873047	2423.393798828125	539.2354125976562	-498.4140319824219	2813.049560546875	629.716796875	-266.9495544433594	2292.558349609375	370.0682373046875	-505.0476379394531	2216.099853515625	303.7400817871094	-502.2771911621094	2772.137939453125	440.0269470214844	-249.5513763427734	2127.9482421875	80.08058166503906	-506.1919860839844	2694.107177734375	461.5785217285156	-263.7003479003906	2046.38818359375	237.3637847900391	-408.1119384765625	2749.190673828125	343.5584716796875	-264.2270812988281	2674.170166015625	364.9025268554688	-287.6158142089844	2114.427490234375	238.5802917480469	-493.5128173828125	2685.329345703125	222.8733978271484	-267.3152770996094	2872.271240234375	162.0623474121094	-316.1279907226562	2619.06689453125	188.6146850585938	-315.844482421875	2632.177001953125	156.9536743164062	-344.9857177734375	2620.074951171875	158.0570526123047	-290.8985290527344	2034.060302734375	236.5469360351562	-460.264404296875
252	1.255	2653.869140625	1524.21240234375	-561.845947265625	2570.72412109375	1521.366821289062	-248.6034393310547	2606.69775390625	1047.185791015625	-543.9008178710938	2606.567626953125	1077.597290039062	-246.4588165283203	2649.19970703125	1005.834350585938	-519.0086059570312	2081.54541015625	272.6172790527344	-437.7091979980469	2644.07861328125	1030.322509765625	-256.3637390136719	2519.4658203125	941.6500244140624	-556.7689208984375	2555.70947265625	939.1002807617188	-215.3197174072266	2488.79296875	1080.033081054688	-392.1085510253906	2592.571044921875	762.6368408203125	-539.6478881835938	2180.62890625	368.2167663574219	-474.3978271484375	2511.01806640625	784.7005004882812	-560.4331665039062	2550.734375	665.251220703125	-518.7966918945312	2848.0791015625	145.6833953857422	-243.5608215332031	2248.25732421875	436.4779052734375	-513.1864013671875	2472.088134765625	694.91357421875	-535.552734375	2730.673583984375	890.2840576171875	-248.7264862060547	2204.941650390625	47.22336578369141	-445.2061767578125	2672.396240234375	842.2202758789062	-221.9187316894531	2794.52880859375	810.080078125	-253.6017303466797	2730.52392578125	761.8173828125	-235.5020294189453	2439.97119140625	543.1137084960938	-498.9931945800781	2832.07666015625	629.5813598632812	-265.4603576660156	2307.298095703125	375.5924987792969	-505.4914855957031	2230.2890625	310.043212890625	-501.2543029785156	2798.839111328125	437.866455078125	-247.3346710205078	2135.41845703125	86.61091613769531	-505.2506103515625	2720.0419921875	455.71923828125	-262.3727111816406	2064.815185546875	251.2823944091797	-408.811767578125	2781.386474609375	339.9994812011719	-263.485107421875	2704.38818359375	358.7033081054688	-285.4503479003906	2127.875732421875	244.9208831787109	-493.3211059570312	2723.822265625	215.1832275390625	-266.8971557617188	2913.933349609375	164.6453399658203	-316.2657165527344	2659.266845703125	177.8467559814453	-315.203125	2677.35400390625	148.7305297851562	-344.9511413574219	2661.260498046875	147.4378814697266	-289.4869995117188	2052.084716796875	250.5874633789062	-461.768310546875
253	1.26	2673.8193359375	1527.177856445312	-558.7996215820312	2591.041259765625	1523.582397460938	-248.2171325683594	2629.148681640625	1049.4453125	-543.719482421875	2628.97705078125	1079.496215820312	-246.5608978271484	2671.496337890625	1007.829833984375	-518.6781005859375	2100.72900390625	285.2390441894531	-438.8507080078125	2666.587158203125	1031.647338867188	-256.7861022949219	2541.663818359375	944.8709716796876	-556.95849609375	2577.0439453125	940.4552001953124	-216.1407623291016	2512.107421875	1082.47509765625	-392.2134094238281	2611.478515625	765.3551025390625	-539.6171875	2196.072509765625	375.4754943847656	-475.1756286621094	2531.031494140625	788.0101928710938	-560.4365234375	2569.27099609375	668.2474975585938	-519.6181640625	2890.237060546875	145.0862426757812	-244.2075500488281	2264.878662109375	443.0793151855469	-513.865966796875	2490.823974609375	698.2047119140625	-535.8710327148438	2752.567626953125	891.11376953125	-248.2940216064453	2210.94921875	53.29944610595703	-442.6333618164062	2693.263671875	843.10498046875	-222.0083160400391	2815.13232421875	810.615966796875	-253.2774353027344	2750.486572265625	762.4193115234375	-238.2022552490234	2458.013671875	546.910888671875	-500.5654907226562	2850.947998046875	628.8196411132812	-265.1962280273438	2320.576171875	381.8809509277344	-506.4515991210938	2245.10302734375	316.8031921386719	-501.6244506835938	2825.99609375	435.0994567871094	-247.4073944091797	2143.63134765625	94.76625061035156	-504.0221557617188	2745.793212890625	449.3179931640625	-261.819580078125	2083.062255859375	265.30517578125	-410.1989440917969	2812.4267578125	336.1851501464844	-262.4682922363281	2736.706298828125	350.7180786132812	-287.1510314941406	2142.84716796875	253.5485687255859	-493.95703125	2761.985107421875	209.1112670898438	-266.4892578125	2954.033203125	167.9134521484375	-316.0595092773438	2699.421142578125	167.4720764160156	-314.9484252929688	2718.470947265625	139.0487365722656	-344.7428894042969	2702.239013671875	138.4690093994141	-287.7594299316406	2070.4189453125	264.0270690917969	-463.0126647949219
